<svg xmlns="http://www.w3.org/2000/svg" xmlns:xlink="http://www.w3.org/1999/xlink" contentStyleType="text/css" height="417px" preserveAspectRatio="none" style="width:506px;height:417px;background:#FFFFFF;" version="1.1" viewBox="0 0 506 417" width="506px" zoomAndPan="magnify"><defs/><g><rect fill="#F1F1F1" height="33.9688" rx="12.5" ry="12.5" style="stroke:#181818;stroke-width:0.5;" width="235.3145" x="110.9673" y="11"/><text fill="#000000" font-family="sans-serif" font-size="12" lengthAdjust="spacing" textLength="215.3145" x="120.9673" y="32.1387">Iniciar proceso de agregar al carrito</text><ellipse cx="228.6245" cy="74.9688" fill="#222222" rx="10" ry="10" style="stroke:#222222;stroke-width:1.0;"/><rect fill="#F1F1F1" height="33.9688" rx="12.5" ry="12.5" style="stroke:#181818;stroke-width:0.5;" width="147.0547" x="155.0972" y="104.9688"/><text fill="#000000" font-family="sans-serif" font-size="12" lengthAdjust="spacing" textLength="127.0547" x="165.0972" y="126.1074">Seleccionar producto</text><rect fill="#F1F1F1" height="33.9688" rx="12.5" ry="12.5" style="stroke:#181818;stroke-width:0.5;" width="237.1484" x="110.0503" y="158.9375"/><text fill="#000000" font-family="sans-serif" font-size="12" lengthAdjust="spacing" textLength="217.1484" x="120.0503" y="180.0762">Verificar disponibilidad del producto</text><polygon fill="#F1F1F1" points="168.4146,212.9063,288.8345,212.9063,300.8345,224.9063,288.8345,236.9063,168.4146,236.9063,156.4146,224.9063,168.4146,212.9063" style="stroke:#181818;stroke-width:0.5;"/><text fill="#000000" font-family="sans-serif" font-size="11" lengthAdjust="spacing" textLength="120.4199" x="168.4146" y="228.7144">&#191;Producto disponible?</text><text fill="#000000" font-family="sans-serif" font-size="11" lengthAdjust="spacing" textLength="8.7871" x="147.6274" y="222.312">s&#237;</text><text fill="#000000" font-family="sans-serif" font-size="11" lengthAdjust="spacing" textLength="13.7017" x="300.8345" y="222.312">no</text><rect fill="#F1F1F1" height="33.9688" rx="12.5" ry="12.5" style="stroke:#181818;stroke-width:0.5;" width="183.1367" x="11" y="246.9063"/><text fill="#000000" font-family="sans-serif" font-size="12" lengthAdjust="spacing" textLength="163.1367" x="21" y="268.0449">Agregar producto al carrito</text><rect fill="#F1F1F1" height="33.9688" rx="12.5" ry="12.5" style="stroke:#181818;stroke-width:0.5;" width="281.0879" x="214.1367" y="246.9063"/><text fill="#000000" font-family="sans-serif" font-size="12" lengthAdjust="spacing" textLength="261.0879" x="224.1367" y="268.0449">Mostrar mensaje de producto no disponible</text><polygon fill="#F1F1F1" points="228.6245,286.875,240.6245,298.875,228.6245,310.875,216.6245,298.875,228.6245,286.875" style="stroke:#181818;stroke-width:0.5;"/><rect fill="#F1F1F1" height="33.9688" rx="12.5" ry="12.5" style="stroke:#181818;stroke-width:0.5;" width="261.3535" x="97.9478" y="330.875"/><text fill="#000000" font-family="sans-serif" font-size="12" lengthAdjust="spacing" textLength="241.3535" x="107.9478" y="352.0137">Completar proceso de agregar al carrito</text><ellipse cx="228.6245" cy="395.8438" fill="none" rx="11" ry="11" style="stroke:#222222;stroke-width:1.0;"/><ellipse cx="228.6245" cy="395.8438" fill="#222222" rx="6" ry="6" style="stroke:#222222;stroke-width:1.0;"/><line style="stroke:#181818;stroke-width:1.0;" x1="228.6245" x2="228.6245" y1="44.9688" y2="64.9688"/><polygon fill="#181818" points="224.6245,54.9688,228.6245,64.9688,232.6245,54.9688,228.6245,58.9688" style="stroke:#181818;stroke-width:1.0;"/><line style="stroke:#181818;stroke-width:1.0;" x1="228.6245" x2="228.6245" y1="84.9688" y2="104.9688"/><polygon fill="#181818" points="224.6245,94.9688,228.6245,104.9688,232.6245,94.9688,228.6245,98.9688" style="stroke:#181818;stroke-width:1.0;"/><line style="stroke:#181818;stroke-width:1.0;" x1="228.6245" x2="228.6245" y1="138.9375" y2="158.9375"/><polygon fill="#181818" points="224.6245,148.9375,228.6245,158.9375,232.6245,148.9375,228.6245,152.9375" style="stroke:#181818;stroke-width:1.0;"/><line style="stroke:#181818;stroke-width:1.0;" x1="156.4146" x2="102.5684" y1="224.9063" y2="224.9063"/><line style="stroke:#181818;stroke-width:1.0;" x1="102.5684" x2="102.5684" y1="224.9063" y2="246.9063"/><polygon fill="#181818" points="98.5684,236.9063,102.5684,246.9063,106.5684,236.9063,102.5684,240.9063" style="stroke:#181818;stroke-width:1.0;"/><line style="stroke:#181818;stroke-width:1.0;" x1="300.8345" x2="354.6807" y1="224.9063" y2="224.9063"/><line style="stroke:#181818;stroke-width:1.0;" x1="354.6807" x2="354.6807" y1="224.9063" y2="246.9063"/><polygon fill="#181818" points="350.6807,236.9063,354.6807,246.9063,358.6807,236.9063,354.6807,240.9063" style="stroke:#181818;stroke-width:1.0;"/><line style="stroke:#181818;stroke-width:1.0;" x1="102.5684" x2="102.5684" y1="280.875" y2="298.875"/><line style="stroke:#181818;stroke-width:1.0;" x1="102.5684" x2="216.6245" y1="298.875" y2="298.875"/><polygon fill="#181818" points="206.6245,294.875,216.6245,298.875,206.6245,302.875,210.6245,298.875" style="stroke:#181818;stroke-width:1.0;"/><line style="stroke:#181818;stroke-width:1.0;" x1="354.6807" x2="354.6807" y1="280.875" y2="298.875"/><line style="stroke:#181818;stroke-width:1.0;" x1="354.6807" x2="240.6245" y1="298.875" y2="298.875"/><polygon fill="#181818" points="250.6245,294.875,240.6245,298.875,250.6245,302.875,246.6245,298.875" style="stroke:#181818;stroke-width:1.0;"/><line style="stroke:#181818;stroke-width:1.0;" x1="228.6245" x2="228.6245" y1="192.9063" y2="212.9063"/><polygon fill="#181818" points="224.6245,202.9063,228.6245,212.9063,232.6245,202.9063,228.6245,206.9063" style="stroke:#181818;stroke-width:1.0;"/><line style="stroke:#181818;stroke-width:1.0;" x1="228.6245" x2="228.6245" y1="310.875" y2="330.875"/><polygon fill="#181818" points="224.6245,320.875,228.6245,330.875,232.6245,320.875,228.6245,324.875" style="stroke:#181818;stroke-width:1.0;"/><line style="stroke:#181818;stroke-width:1.0;" x1="228.6245" x2="228.6245" y1="364.8438" y2="384.8438"/><polygon fill="#181818" points="224.6245,374.8438,228.6245,384.8438,232.6245,374.8438,228.6245,378.8438" style="stroke:#181818;stroke-width:1.0;"/><!--SRC=[ZOyn3i8m34NtdC9ZUuKm8CJ4W8I4n1uIjnW5EtB2iJW34boC54fLDaRRxzdVTiFaoIaa5OzP822uNh6lBHV1ErKgiZ2vE2t6xZ6YzoJyCSBL3qDxGAMEAWo1SXAc8qKABjHjSSPH1ytZlXlhYOsuRA6SaA79prjh0EngZF1rVx9Wp0WDovlSIYvQoGjoTcSSyayIpszKZmDrngxbaYAMVtwMz080]--></g></svg>