<svg xmlns="http://www.w3.org/2000/svg" xmlns:xlink="http://www.w3.org/1999/xlink" contentStyleType="text/css" height="525px" preserveAspectRatio="none" style="width:388px;height:525px;background:#FFFFFF;" version="1.1" viewBox="0 0 388 525" width="388px" zoomAndPan="magnify"><defs/><g><rect fill="#F1F1F1" height="33.9688" rx="12.5" ry="12.5" style="stroke:#181818;stroke-width:0.5;" width="259.2207" x="76.2373" y="11"/><text fill="#000000" font-family="sans-serif" font-size="12" lengthAdjust="spacing" textLength="239.2207" x="86.2373" y="32.1387">Iniciar proceso de cancelaci&#243;n de orden</text><ellipse cx="205.8477" cy="74.9688" fill="#222222" rx="10" ry="10" style="stroke:#222222;stroke-width:1.0;"/><rect fill="#F1F1F1" height="33.9688" rx="12.5" ry="12.5" style="stroke:#181818;stroke-width:0.5;" width="215.4805" x="98.1074" y="104.9688"/><text fill="#000000" font-family="sans-serif" font-size="12" lengthAdjust="spacing" textLength="195.4805" x="108.1074" y="126.1074">Solicitar cancelaci&#243;n de la orden</text><rect fill="#F1F1F1" height="33.9688" rx="12.5" ry="12.5" style="stroke:#181818;stroke-width:0.5;" width="186.7813" x="112.457" y="158.9375"/><text fill="#000000" font-family="sans-serif" font-size="12" lengthAdjust="spacing" textLength="166.7813" x="122.457" y="180.0762">Verificar estado de la orden</text><polygon fill="#F1F1F1" points="151.7205,212.9063,259.9749,212.9063,271.9749,224.9063,259.9749,236.9063,151.7205,236.9063,139.7205,224.9063,151.7205,212.9063" style="stroke:#181818;stroke-width:0.5;"/><text fill="#000000" font-family="sans-serif" font-size="11" lengthAdjust="spacing" textLength="108.2544" x="151.7205" y="228.7144">&#191;Orden cancelable?</text><text fill="#000000" font-family="sans-serif" font-size="11" lengthAdjust="spacing" textLength="8.7871" x="130.9333" y="222.312">s&#237;</text><text fill="#000000" font-family="sans-serif" font-size="11" lengthAdjust="spacing" textLength="13.7017" x="271.9749" y="222.312">no</text><rect fill="#F1F1F1" height="33.9688" rx="12.5" ry="12.5" style="stroke:#181818;stroke-width:0.5;" width="142.9238" x="37.6396" y="246.9063"/><text fill="#000000" font-family="sans-serif" font-size="12" lengthAdjust="spacing" textLength="122.9238" x="47.6396" y="268.0449">Aprobar cancelaci&#243;n</text><rect fill="#F1F1F1" height="33.9688" rx="12.5" ry="12.5" style="stroke:#181818;stroke-width:0.5;" width="196.2031" x="11" y="300.875"/><text fill="#000000" font-family="sans-serif" font-size="12" lengthAdjust="spacing" textLength="176.2031" x="21" y="322.0137">Actualizar estado de la orden</text><rect fill="#F1F1F1" height="33.9688" rx="12.5" ry="12.5" style="stroke:#181818;stroke-width:0.5;" width="150.7813" x="227.2031" y="246.9063"/><text fill="#000000" font-family="sans-serif" font-size="12" lengthAdjust="spacing" textLength="130.7813" x="237.2031" y="268.0449">Rechazar cancelaci&#243;n</text><polygon fill="#F1F1F1" points="205.8477,340.8438,217.8477,352.8438,205.8477,364.8438,193.8477,352.8438,205.8477,340.8438" style="stroke:#181818;stroke-width:0.5;"/><rect fill="#F1F1F1" height="33.9688" rx="12.5" ry="12.5" style="stroke:#181818;stroke-width:0.5;" width="151.0625" x="130.3164" y="384.8438"/><text fill="#000000" font-family="sans-serif" font-size="12" lengthAdjust="spacing" textLength="131.0625" x="140.3164" y="405.9824">Notificar al solicitante</text><rect fill="#F1F1F1" height="33.9688" rx="12.5" ry="12.5" style="stroke:#181818;stroke-width:0.5;" width="285.2598" x="63.2178" y="438.8125"/><text fill="#000000" font-family="sans-serif" font-size="12" lengthAdjust="spacing" textLength="265.2598" x="73.2178" y="459.9512">Completar proceso de cancelaci&#243;n de orden</text><ellipse cx="205.8477" cy="503.7813" fill="none" rx="11" ry="11" style="stroke:#222222;stroke-width:1.0;"/><ellipse cx="205.8477" cy="503.7813" fill="#222222" rx="6" ry="6" style="stroke:#222222;stroke-width:1.0;"/><line style="stroke:#181818;stroke-width:1.0;" x1="205.8477" x2="205.8477" y1="44.9688" y2="64.9688"/><polygon fill="#181818" points="201.8477,54.9688,205.8477,64.9688,209.8477,54.9688,205.8477,58.9688" style="stroke:#181818;stroke-width:1.0;"/><line style="stroke:#181818;stroke-width:1.0;" x1="205.8477" x2="205.8477" y1="84.9688" y2="104.9688"/><polygon fill="#181818" points="201.8477,94.9688,205.8477,104.9688,209.8477,94.9688,205.8477,98.9688" style="stroke:#181818;stroke-width:1.0;"/><line style="stroke:#181818;stroke-width:1.0;" x1="205.8477" x2="205.8477" y1="138.9375" y2="158.9375"/><polygon fill="#181818" points="201.8477,148.9375,205.8477,158.9375,209.8477,148.9375,205.8477,152.9375" style="stroke:#181818;stroke-width:1.0;"/><line style="stroke:#181818;stroke-width:1.0;" x1="109.1016" x2="109.1016" y1="280.875" y2="300.875"/><polygon fill="#181818" points="105.1016,290.875,109.1016,300.875,113.1016,290.875,109.1016,294.875" style="stroke:#181818;stroke-width:1.0;"/><line style="stroke:#181818;stroke-width:1.0;" x1="139.7205" x2="109.1016" y1="224.9063" y2="224.9063"/><line style="stroke:#181818;stroke-width:1.0;" x1="109.1016" x2="109.1016" y1="224.9063" y2="246.9063"/><polygon fill="#181818" points="105.1016,236.9063,109.1016,246.9063,113.1016,236.9063,109.1016,240.9063" style="stroke:#181818;stroke-width:1.0;"/><line style="stroke:#181818;stroke-width:1.0;" x1="271.9749" x2="302.5938" y1="224.9063" y2="224.9063"/><line style="stroke:#181818;stroke-width:1.0;" x1="302.5938" x2="302.5938" y1="224.9063" y2="246.9063"/><polygon fill="#181818" points="298.5938,236.9063,302.5938,246.9063,306.5938,236.9063,302.5938,240.9063" style="stroke:#181818;stroke-width:1.0;"/><line style="stroke:#181818;stroke-width:1.0;" x1="109.1016" x2="109.1016" y1="334.8438" y2="352.8438"/><line style="stroke:#181818;stroke-width:1.0;" x1="109.1016" x2="193.8477" y1="352.8438" y2="352.8438"/><polygon fill="#181818" points="183.8477,348.8438,193.8477,352.8438,183.8477,356.8438,187.8477,352.8438" style="stroke:#181818;stroke-width:1.0;"/><line style="stroke:#181818;stroke-width:1.0;" x1="302.5938" x2="302.5938" y1="280.875" y2="352.8438"/><line style="stroke:#181818;stroke-width:1.0;" x1="302.5938" x2="217.8477" y1="352.8438" y2="352.8438"/><polygon fill="#181818" points="227.8477,348.8438,217.8477,352.8438,227.8477,356.8438,223.8477,352.8438" style="stroke:#181818;stroke-width:1.0;"/><line style="stroke:#181818;stroke-width:1.0;" x1="205.8477" x2="205.8477" y1="192.9063" y2="212.9063"/><polygon fill="#181818" points="201.8477,202.9063,205.8477,212.9063,209.8477,202.9063,205.8477,206.9063" style="stroke:#181818;stroke-width:1.0;"/><line style="stroke:#181818;stroke-width:1.0;" x1="205.8477" x2="205.8477" y1="364.8438" y2="384.8438"/><polygon fill="#181818" points="201.8477,374.8438,205.8477,384.8438,209.8477,374.8438,205.8477,378.8438" style="stroke:#181818;stroke-width:1.0;"/><line style="stroke:#181818;stroke-width:1.0;" x1="205.8477" x2="205.8477" y1="418.8125" y2="438.8125"/><polygon fill="#181818" points="201.8477,428.8125,205.8477,438.8125,209.8477,428.8125,205.8477,432.8125" style="stroke:#181818;stroke-width:1.0;"/><line style="stroke:#181818;stroke-width:1.0;" x1="205.8477" x2="205.8477" y1="472.7813" y2="492.7813"/><polygon fill="#181818" points="201.8477,482.7813,205.8477,492.7813,209.8477,482.7813,205.8477,486.7813" style="stroke:#181818;stroke-width:1.0;"/><!--SRC=[ZL0x3i8m3Drp2e_j5T818IOMa41YTnrNZHJYAWbBxyJ40P3enKYhTe0AYSts-zZFUkyjMGpG1I6E0eQ1q1Cx93iy_DXBCEmh5HE6fFHPN5RaUiLpk53rXODjB6KIPvcHJzWsKBoUnx5PJ6h7cn9IcoT57Ewb0j3RV5FzjQUQ04etTBR_OSykCXHU9fCJKulzoeMziOtI1qdpdUWWpibyuXnX9zVESVhpDTAz0G00]--></g></svg>