<svg xmlns="http://www.w3.org/2000/svg" xmlns:xlink="http://www.w3.org/1999/xlink" contentStyleType="text/css" height="579px" preserveAspectRatio="none" style="width:316px;height:579px;background:#FFFFFF;" version="1.1" viewBox="0 0 316 579" width="316px" zoomAndPan="magnify"><defs/><g><rect fill="#F1F1F1" height="33.9688" rx="12.5" ry="12.5" style="stroke:#181818;stroke-width:0.5;" width="233.6504" x="44.8018" y="11"/><text fill="#000000" font-family="sans-serif" font-size="12" lengthAdjust="spacing" textLength="213.6504" x="54.8018" y="32.1387">Iniciar proceso de orden de compra</text><ellipse cx="161.627" cy="74.9688" fill="#222222" rx="10" ry="10" style="stroke:#222222;stroke-width:1.0;"/><rect fill="#F1F1F1" height="33.9688" rx="12.5" ry="12.5" style="stroke:#181818;stroke-width:0.5;" width="175.0801" x="74.0869" y="104.9688"/><text fill="#000000" font-family="sans-serif" font-size="12" lengthAdjust="spacing" textLength="155.0801" x="84.0869" y="126.1074">Crear solicitud de compra</text><rect fill="#F1F1F1" height="33.9688" rx="12.5" ry="12.5" style="stroke:#181818;stroke-width:0.5;" width="186.793" x="68.2305" y="158.9375"/><text fill="#000000" font-family="sans-serif" font-size="12" lengthAdjust="spacing" textLength="166.793" x="78.2305" y="180.0762">Revisar solicitud de compra</text><polygon fill="#F1F1F1" points="109.0654,212.9063,214.1885,212.9063,226.1885,224.9063,214.1885,236.9063,109.0654,236.9063,97.0654,224.9063,109.0654,212.9063" style="stroke:#181818;stroke-width:0.5;"/><text fill="#000000" font-family="sans-serif" font-size="11" lengthAdjust="spacing" textLength="105.123" x="109.0654" y="228.7144">&#191;Aprobar solicitud?</text><text fill="#000000" font-family="sans-serif" font-size="11" lengthAdjust="spacing" textLength="8.7871" x="88.2783" y="222.312">s&#237;</text><text fill="#000000" font-family="sans-serif" font-size="11" lengthAdjust="spacing" textLength="13.7017" x="226.1885" y="222.312">no</text><rect fill="#F1F1F1" height="33.9688" rx="12.5" ry="12.5" style="stroke:#181818;stroke-width:0.5;" width="121.9414" x="22.1475" y="246.9063"/><text fill="#000000" font-family="sans-serif" font-size="12" lengthAdjust="spacing" textLength="101.9414" x="32.1475" y="268.0449">Aprobar solicitud</text><rect fill="#F1F1F1" height="33.9688" rx="12.5" ry="12.5" style="stroke:#181818;stroke-width:0.5;" width="117.6758" x="24.2803" y="300.875"/><text fill="#000000" font-family="sans-serif" font-size="12" lengthAdjust="spacing" textLength="97.6758" x="34.2803" y="322.0137">Realizar compra</text><rect fill="#F1F1F1" height="33.9688" rx="12.5" ry="12.5" style="stroke:#181818;stroke-width:0.5;" width="144.2363" x="11" y="354.8438"/><text fill="#000000" font-family="sans-serif" font-size="12" lengthAdjust="spacing" textLength="124.2363" x="21" y="375.9824">Actualizar inventario</text><rect fill="#F1F1F1" height="33.9688" rx="12.5" ry="12.5" style="stroke:#181818;stroke-width:0.5;" width="129.7988" x="175.2363" y="246.9063"/><text fill="#000000" font-family="sans-serif" font-size="12" lengthAdjust="spacing" textLength="109.7988" x="185.2363" y="268.0449">Rechazar solicitud</text><polygon fill="#F1F1F1" points="161.627,394.8125,173.627,406.8125,161.627,418.8125,149.627,406.8125,161.627,394.8125" style="stroke:#181818;stroke-width:0.5;"/><rect fill="#F1F1F1" height="33.9688" rx="12.5" ry="12.5" style="stroke:#181818;stroke-width:0.5;" width="224.1055" x="49.5742" y="438.8125"/><text fill="#000000" font-family="sans-serif" font-size="12" lengthAdjust="spacing" textLength="204.1055" x="59.5742" y="459.9512">Registrar resultados de la compra</text><rect fill="#F1F1F1" height="33.9688" rx="12.5" ry="12.5" style="stroke:#181818;stroke-width:0.5;" width="259.6895" x="31.7822" y="492.7813"/><text fill="#000000" font-family="sans-serif" font-size="12" lengthAdjust="spacing" textLength="239.6895" x="41.7822" y="513.9199">Completar proceso de orden de compra</text><ellipse cx="161.627" cy="557.75" fill="none" rx="11" ry="11" style="stroke:#222222;stroke-width:1.0;"/><ellipse cx="161.627" cy="557.75" fill="#222222" rx="6" ry="6" style="stroke:#222222;stroke-width:1.0;"/><line style="stroke:#181818;stroke-width:1.0;" x1="161.627" x2="161.627" y1="44.9688" y2="64.9688"/><polygon fill="#181818" points="157.627,54.9688,161.627,64.9688,165.627,54.9688,161.627,58.9688" style="stroke:#181818;stroke-width:1.0;"/><line style="stroke:#181818;stroke-width:1.0;" x1="161.627" x2="161.627" y1="84.9688" y2="104.9688"/><polygon fill="#181818" points="157.627,94.9688,161.627,104.9688,165.627,94.9688,161.627,98.9688" style="stroke:#181818;stroke-width:1.0;"/><line style="stroke:#181818;stroke-width:1.0;" x1="161.627" x2="161.627" y1="138.9375" y2="158.9375"/><polygon fill="#181818" points="157.627,148.9375,161.627,158.9375,165.627,148.9375,161.627,152.9375" style="stroke:#181818;stroke-width:1.0;"/><line style="stroke:#181818;stroke-width:1.0;" x1="83.1182" x2="83.1182" y1="280.875" y2="300.875"/><polygon fill="#181818" points="79.1182,290.875,83.1182,300.875,87.1182,290.875,83.1182,294.875" style="stroke:#181818;stroke-width:1.0;"/><line style="stroke:#181818;stroke-width:1.0;" x1="83.1182" x2="83.1182" y1="334.8438" y2="354.8438"/><polygon fill="#181818" points="79.1182,344.8438,83.1182,354.8438,87.1182,344.8438,83.1182,348.8438" style="stroke:#181818;stroke-width:1.0;"/><line style="stroke:#181818;stroke-width:1.0;" x1="97.0654" x2="83.1182" y1="224.9063" y2="224.9063"/><line style="stroke:#181818;stroke-width:1.0;" x1="83.1182" x2="83.1182" y1="224.9063" y2="246.9063"/><polygon fill="#181818" points="79.1182,236.9063,83.1182,246.9063,87.1182,236.9063,83.1182,240.9063" style="stroke:#181818;stroke-width:1.0;"/><line style="stroke:#181818;stroke-width:1.0;" x1="226.1885" x2="240.1357" y1="224.9063" y2="224.9063"/><line style="stroke:#181818;stroke-width:1.0;" x1="240.1357" x2="240.1357" y1="224.9063" y2="246.9063"/><polygon fill="#181818" points="236.1357,236.9063,240.1357,246.9063,244.1357,236.9063,240.1357,240.9063" style="stroke:#181818;stroke-width:1.0;"/><line style="stroke:#181818;stroke-width:1.0;" x1="83.1182" x2="83.1182" y1="388.8125" y2="406.8125"/><line style="stroke:#181818;stroke-width:1.0;" x1="83.1182" x2="149.627" y1="406.8125" y2="406.8125"/><polygon fill="#181818" points="139.627,402.8125,149.627,406.8125,139.627,410.8125,143.627,406.8125" style="stroke:#181818;stroke-width:1.0;"/><line style="stroke:#181818;stroke-width:1.0;" x1="240.1357" x2="240.1357" y1="280.875" y2="406.8125"/><line style="stroke:#181818;stroke-width:1.0;" x1="240.1357" x2="173.627" y1="406.8125" y2="406.8125"/><polygon fill="#181818" points="183.627,402.8125,173.627,406.8125,183.627,410.8125,179.627,406.8125" style="stroke:#181818;stroke-width:1.0;"/><line style="stroke:#181818;stroke-width:1.0;" x1="161.627" x2="161.627" y1="192.9063" y2="212.9063"/><polygon fill="#181818" points="157.627,202.9063,161.627,212.9063,165.627,202.9063,161.627,206.9063" style="stroke:#181818;stroke-width:1.0;"/><line style="stroke:#181818;stroke-width:1.0;" x1="161.627" x2="161.627" y1="418.8125" y2="438.8125"/><polygon fill="#181818" points="157.627,428.8125,161.627,438.8125,165.627,428.8125,161.627,432.8125" style="stroke:#181818;stroke-width:1.0;"/><line style="stroke:#181818;stroke-width:1.0;" x1="161.627" x2="161.627" y1="472.7813" y2="492.7813"/><polygon fill="#181818" points="157.627,482.7813,161.627,492.7813,165.627,482.7813,161.627,486.7813" style="stroke:#181818;stroke-width:1.0;"/><line style="stroke:#181818;stroke-width:1.0;" x1="161.627" x2="161.627" y1="526.75" y2="546.75"/><polygon fill="#181818" points="157.627,536.75,161.627,546.75,165.627,536.75,161.627,540.75" style="stroke:#181818;stroke-width:1.0;"/><!--SRC=[XP0n3i8m34NtdY9ZUuLqGAWJQsyG4fTQ2d5bfnsu4sT0WelX21152B5zVJ_RtxQxX1uTcud9Wv09O8W3f28y7ITsRINPSQvinw2WKDIEF8SrONjOK7vLSJ3rzRBL5ViricbC7dLJBRTpKnbZluYsk3suY2UrN-CAwVFyT34ja3GWKbj1531rekRHvqTt-Xm7AU1GqXvGCckDGUQONI0fWQDxNzIfY93_leQcEm00]--></g></svg>