<svg xmlns="http://www.w3.org/2000/svg" xmlns:xlink="http://www.w3.org/1999/xlink" contentStyleType="text/css" height="687px" preserveAspectRatio="none" style="width:401px;height:687px;background:#FFFFFF;" version="1.1" viewBox="0 0 401 687" width="401px" zoomAndPan="magnify"><defs/><g><rect fill="#F1F1F1" height="33.9688" rx="12.5" ry="12.5" style="stroke:#181818;stroke-width:0.5;" width="176.1406" x="126.7568" y="11"/><text fill="#000000" font-family="sans-serif" font-size="12" lengthAdjust="spacing" textLength="156.1406" x="136.7568" y="32.1387">Iniciar proceso de compra</text><ellipse cx="214.8271" cy="74.9688" fill="#222222" rx="10" ry="10" style="stroke:#222222;stroke-width:1.0;"/><rect fill="#F1F1F1" height="33.9688" rx="12.5" ry="12.5" style="stroke:#181818;stroke-width:0.5;" width="182.123" x="123.7656" y="104.9688"/><text fill="#000000" font-family="sans-serif" font-size="12" lengthAdjust="spacing" textLength="162.123" x="133.7656" y="126.1074">Revisar carrito de compras</text><rect fill="#F1F1F1" height="33.9688" rx="12.5" ry="12.5" style="stroke:#181818;stroke-width:0.5;" width="191.9316" x="118.8613" y="158.9375"/><text fill="#000000" font-family="sans-serif" font-size="12" lengthAdjust="spacing" textLength="171.9316" x="128.8613" y="180.0762">Seleccionar m&#233;todo de pago</text><rect fill="#F1F1F1" height="33.9688" rx="12.5" ry="12.5" style="stroke:#181818;stroke-width:0.5;" width="173.3516" x="128.1514" y="212.9063"/><text fill="#000000" font-family="sans-serif" font-size="12" lengthAdjust="spacing" textLength="153.3516" x="138.1514" y="234.0449">Ingresar detalles de pago</text><rect fill="#F1F1F1" height="33.9688" rx="12.5" ry="12.5" style="stroke:#181818;stroke-width:0.5;" width="174.0371" x="127.8086" y="266.875"/><text fill="#000000" font-family="sans-serif" font-size="12" lengthAdjust="spacing" textLength="154.0371" x="137.8086" y="288.0137">Verificar detalles de pago</text><polygon fill="#F1F1F1" points="177.1597,320.8438,252.4946,320.8438,264.4946,332.8438,252.4946,344.8438,177.1597,344.8438,165.1597,332.8438,177.1597,320.8438" style="stroke:#181818;stroke-width:0.5;"/><text fill="#000000" font-family="sans-serif" font-size="11" lengthAdjust="spacing" textLength="75.335" x="177.1597" y="336.6519">&#191;Pago v&#225;lido?</text><text fill="#000000" font-family="sans-serif" font-size="11" lengthAdjust="spacing" textLength="8.7871" x="156.3726" y="330.2495">s&#237;</text><text fill="#000000" font-family="sans-serif" font-size="11" lengthAdjust="spacing" textLength="13.7017" x="264.4946" y="330.2495">no</text><rect fill="#F1F1F1" height="33.9688" rx="12.5" ry="12.5" style="stroke:#181818;stroke-width:0.5;" width="105.7754" x="62.0352" y="354.8438"/><text fill="#000000" font-family="sans-serif" font-size="12" lengthAdjust="spacing" textLength="85.7754" x="72.0352" y="375.9824">Procesar pago</text><rect fill="#F1F1F1" height="33.9688" rx="12.5" ry="12.5" style="stroke:#181818;stroke-width:0.5;" width="175.748" x="27.0488" y="408.8125"/><text fill="#000000" font-family="sans-serif" font-size="12" lengthAdjust="spacing" textLength="155.748" x="37.0488" y="429.9512">Generar orden de compra</text><rect fill="#F1F1F1" height="33.9688" rx="12.5" ry="12.5" style="stroke:#181818;stroke-width:0.5;" width="144.2363" x="42.8047" y="462.7813"/><text fill="#000000" font-family="sans-serif" font-size="12" lengthAdjust="spacing" textLength="124.2363" x="52.8047" y="483.9199">Actualizar inventario</text><rect fill="#F1F1F1" height="33.9688" rx="12.5" ry="12.5" style="stroke:#181818;stroke-width:0.5;" width="207.8457" x="11" y="516.75"/><text fill="#000000" font-family="sans-serif" font-size="12" lengthAdjust="spacing" textLength="187.8457" x="21" y="537.8887">Enviar confirmaci&#243;n de compra</text><rect fill="#F1F1F1" height="33.9688" rx="12.5" ry="12.5" style="stroke:#181818;stroke-width:0.5;" width="151.7715" x="238.8457" y="354.8438"/><text fill="#000000" font-family="sans-serif" font-size="12" lengthAdjust="spacing" textLength="131.7715" x="248.8457" y="375.9824">Mostrar error de pago</text><polygon fill="#F1F1F1" points="214.8271,556.7188,226.8271,568.7188,214.8271,580.7188,202.8271,568.7188,214.8271,556.7188" style="stroke:#181818;stroke-width:0.5;"/><rect fill="#F1F1F1" height="33.9688" rx="12.5" ry="12.5" style="stroke:#181818;stroke-width:0.5;" width="202.1797" x="113.7373" y="600.7188"/><text fill="#000000" font-family="sans-serif" font-size="12" lengthAdjust="spacing" textLength="182.1797" x="123.7373" y="621.8574">Completar proceso de compra</text><ellipse cx="214.8271" cy="665.6875" fill="none" rx="11" ry="11" style="stroke:#222222;stroke-width:1.0;"/><ellipse cx="214.8271" cy="665.6875" fill="#222222" rx="6" ry="6" style="stroke:#222222;stroke-width:1.0;"/><line style="stroke:#181818;stroke-width:1.0;" x1="214.8271" x2="214.8271" y1="44.9688" y2="64.9688"/><polygon fill="#181818" points="210.8271,54.9688,214.8271,64.9688,218.8271,54.9688,214.8271,58.9688" style="stroke:#181818;stroke-width:1.0;"/><line style="stroke:#181818;stroke-width:1.0;" x1="214.8271" x2="214.8271" y1="84.9688" y2="104.9688"/><polygon fill="#181818" points="210.8271,94.9688,214.8271,104.9688,218.8271,94.9688,214.8271,98.9688" style="stroke:#181818;stroke-width:1.0;"/><line style="stroke:#181818;stroke-width:1.0;" x1="214.8271" x2="214.8271" y1="138.9375" y2="158.9375"/><polygon fill="#181818" points="210.8271,148.9375,214.8271,158.9375,218.8271,148.9375,214.8271,152.9375" style="stroke:#181818;stroke-width:1.0;"/><line style="stroke:#181818;stroke-width:1.0;" x1="214.8271" x2="214.8271" y1="192.9063" y2="212.9063"/><polygon fill="#181818" points="210.8271,202.9063,214.8271,212.9063,218.8271,202.9063,214.8271,206.9063" style="stroke:#181818;stroke-width:1.0;"/><line style="stroke:#181818;stroke-width:1.0;" x1="214.8271" x2="214.8271" y1="246.875" y2="266.875"/><polygon fill="#181818" points="210.8271,256.875,214.8271,266.875,218.8271,256.875,214.8271,260.875" style="stroke:#181818;stroke-width:1.0;"/><line style="stroke:#181818;stroke-width:1.0;" x1="114.9229" x2="114.9229" y1="388.8125" y2="408.8125"/><polygon fill="#181818" points="110.9229,398.8125,114.9229,408.8125,118.9229,398.8125,114.9229,402.8125" style="stroke:#181818;stroke-width:1.0;"/><line style="stroke:#181818;stroke-width:1.0;" x1="114.9229" x2="114.9229" y1="442.7813" y2="462.7813"/><polygon fill="#181818" points="110.9229,452.7813,114.9229,462.7813,118.9229,452.7813,114.9229,456.7813" style="stroke:#181818;stroke-width:1.0;"/><line style="stroke:#181818;stroke-width:1.0;" x1="114.9229" x2="114.9229" y1="496.75" y2="516.75"/><polygon fill="#181818" points="110.9229,506.75,114.9229,516.75,118.9229,506.75,114.9229,510.75" style="stroke:#181818;stroke-width:1.0;"/><line style="stroke:#181818;stroke-width:1.0;" x1="165.1597" x2="114.9229" y1="332.8438" y2="332.8438"/><line style="stroke:#181818;stroke-width:1.0;" x1="114.9229" x2="114.9229" y1="332.8438" y2="354.8438"/><polygon fill="#181818" points="110.9229,344.8438,114.9229,354.8438,118.9229,344.8438,114.9229,348.8438" style="stroke:#181818;stroke-width:1.0;"/><line style="stroke:#181818;stroke-width:1.0;" x1="264.4946" x2="314.7314" y1="332.8438" y2="332.8438"/><line style="stroke:#181818;stroke-width:1.0;" x1="314.7314" x2="314.7314" y1="332.8438" y2="354.8438"/><polygon fill="#181818" points="310.7314,344.8438,314.7314,354.8438,318.7314,344.8438,314.7314,348.8438" style="stroke:#181818;stroke-width:1.0;"/><line style="stroke:#181818;stroke-width:1.0;" x1="114.9229" x2="114.9229" y1="550.7188" y2="568.7188"/><line style="stroke:#181818;stroke-width:1.0;" x1="114.9229" x2="202.8271" y1="568.7188" y2="568.7188"/><polygon fill="#181818" points="192.8271,564.7188,202.8271,568.7188,192.8271,572.7188,196.8271,568.7188" style="stroke:#181818;stroke-width:1.0;"/><line style="stroke:#181818;stroke-width:1.0;" x1="314.7314" x2="314.7314" y1="388.8125" y2="568.7188"/><line style="stroke:#181818;stroke-width:1.0;" x1="314.7314" x2="226.8271" y1="568.7188" y2="568.7188"/><polygon fill="#181818" points="236.8271,564.7188,226.8271,568.7188,236.8271,572.7188,232.8271,568.7188" style="stroke:#181818;stroke-width:1.0;"/><line style="stroke:#181818;stroke-width:1.0;" x1="214.8271" x2="214.8271" y1="300.8438" y2="320.8438"/><polygon fill="#181818" points="210.8271,310.8438,214.8271,320.8438,218.8271,310.8438,214.8271,314.8438" style="stroke:#181818;stroke-width:1.0;"/><line style="stroke:#181818;stroke-width:1.0;" x1="214.8271" x2="214.8271" y1="580.7188" y2="600.7188"/><polygon fill="#181818" points="210.8271,590.7188,214.8271,600.7188,218.8271,590.7188,214.8271,594.7188" style="stroke:#181818;stroke-width:1.0;"/><line style="stroke:#181818;stroke-width:1.0;" x1="214.8271" x2="214.8271" y1="634.6875" y2="654.6875"/><polygon fill="#181818" points="210.8271,644.6875,214.8271,654.6875,218.8271,644.6875,214.8271,648.6875" style="stroke:#181818;stroke-width:1.0;"/><!--SRC=[TP2nIWH138RxUOgKUwymLuY8o1N2eM0_PB9dO3PPCkCMzpPNMbZv08BxOcRNmXMq2_c_d_n_ua4OEHcCfaXL8HEW3gEbVQWjMGlnWIQkJc0ouxOXwZx4Hog4o2eE3FDhqxm2OpgfgmSv6ItUJ2sLGdMZFP5np_Ydo3rqdnz7ds6QBuMpNksWFPD0L-UtNG28npNl4dnr-EQEXCmNQjd1JG_Nhh6zfC9dbrac4c_6twvRcPRwgDAp3GbvVlzbfb89Ej7rwBtMjfmWCxMVk2IP-n1lt5Ayop_FrF4B]--></g></svg>