<svg xmlns="http://www.w3.org/2000/svg" xmlns:xlink="http://www.w3.org/1999/xlink" contentStyleType="text/css" height="525px" preserveAspectRatio="none" style="width:346px;height:525px;background:#FFFFFF;" version="1.1" viewBox="0 0 346 525" width="346px" zoomAndPan="magnify"><defs/><g><rect fill="#F1F1F1" height="33.9688" rx="12.5" ry="12.5" style="stroke:#181818;stroke-width:0.5;" width="244.1387" x="65.0283" y="11"/><text fill="#000000" font-family="sans-serif" font-size="12" lengthAdjust="spacing" textLength="224.1387" x="75.0283" y="32.1387">Iniciar proceso de validaci&#243;n de pago</text><ellipse cx="187.0977" cy="74.9688" fill="#222222" rx="10" ry="10" style="stroke:#222222;stroke-width:1.0;"/><rect fill="#F1F1F1" height="33.9688" rx="12.5" ry="12.5" style="stroke:#181818;stroke-width:0.5;" width="109.8125" x="132.1914" y="104.9688"/><text fill="#000000" font-family="sans-serif" font-size="12" lengthAdjust="spacing" textLength="89.8125" x="142.1914" y="126.1074">Recibir el pago</text><rect fill="#F1F1F1" height="33.9688" rx="12.5" ry="12.5" style="stroke:#181818;stroke-width:0.5;" width="177.3711" x="98.4121" y="158.9375"/><text fill="#000000" font-family="sans-serif" font-size="12" lengthAdjust="spacing" textLength="157.3711" x="108.4121" y="180.0762">Verificar detalles del pago</text><polygon fill="#F1F1F1" points="131.3538,212.9063,242.8416,212.9063,254.8416,224.9063,242.8416,236.9063,131.3538,236.9063,119.3538,224.9063,131.3538,212.9063" style="stroke:#181818;stroke-width:0.5;"/><text fill="#000000" font-family="sans-serif" font-size="11" lengthAdjust="spacing" textLength="111.4878" x="131.3538" y="228.7144">&#191;Detalles correctos?</text><text fill="#000000" font-family="sans-serif" font-size="11" lengthAdjust="spacing" textLength="8.7871" x="110.5667" y="222.312">s&#237;</text><text fill="#000000" font-family="sans-serif" font-size="11" lengthAdjust="spacing" textLength="13.7017" x="254.8416" y="222.312">no</text><rect fill="#F1F1F1" height="33.9688" rx="12.5" ry="12.5" style="stroke:#181818;stroke-width:0.5;" width="116.2813" x="42.9014" y="246.9063"/><text fill="#000000" font-family="sans-serif" font-size="12" lengthAdjust="spacing" textLength="96.2813" x="52.9014" y="268.0449">Aprobar el pago</text><rect fill="#F1F1F1" height="33.9688" rx="12.5" ry="12.5" style="stroke:#181818;stroke-width:0.5;" width="180.084" x="11" y="300.875"/><text fill="#000000" font-family="sans-serif" font-size="12" lengthAdjust="spacing" textLength="160.084" x="21" y="322.0137">Actualizar estado del pago</text><rect fill="#F1F1F1" height="33.9688" rx="12.5" ry="12.5" style="stroke:#181818;stroke-width:0.5;" width="124.1387" x="211.084" y="246.9063"/><text fill="#000000" font-family="sans-serif" font-size="12" lengthAdjust="spacing" textLength="104.1387" x="221.084" y="268.0449">Rechazar el pago</text><polygon fill="#F1F1F1" points="187.0977,340.8438,199.0977,352.8438,187.0977,364.8438,175.0977,352.8438,187.0977,340.8438" style="stroke:#181818;stroke-width:0.5;"/><rect fill="#F1F1F1" height="33.9688" rx="12.5" ry="12.5" style="stroke:#181818;stroke-width:0.5;" width="129.459" x="122.3682" y="384.8438"/><text fill="#000000" font-family="sans-serif" font-size="12" lengthAdjust="spacing" textLength="109.459" x="132.3682" y="405.9824">Notificar al cliente</text><rect fill="#F1F1F1" height="33.9688" rx="12.5" ry="12.5" style="stroke:#181818;stroke-width:0.5;" width="270.1777" x="52.0088" y="438.8125"/><text fill="#000000" font-family="sans-serif" font-size="12" lengthAdjust="spacing" textLength="250.1777" x="62.0088" y="459.9512">Completar proceso de validaci&#243;n de pago</text><ellipse cx="187.0977" cy="503.7813" fill="none" rx="11" ry="11" style="stroke:#222222;stroke-width:1.0;"/><ellipse cx="187.0977" cy="503.7813" fill="#222222" rx="6" ry="6" style="stroke:#222222;stroke-width:1.0;"/><line style="stroke:#181818;stroke-width:1.0;" x1="187.0977" x2="187.0977" y1="44.9688" y2="64.9688"/><polygon fill="#181818" points="183.0977,54.9688,187.0977,64.9688,191.0977,54.9688,187.0977,58.9688" style="stroke:#181818;stroke-width:1.0;"/><line style="stroke:#181818;stroke-width:1.0;" x1="187.0977" x2="187.0977" y1="84.9688" y2="104.9688"/><polygon fill="#181818" points="183.0977,94.9688,187.0977,104.9688,191.0977,94.9688,187.0977,98.9688" style="stroke:#181818;stroke-width:1.0;"/><line style="stroke:#181818;stroke-width:1.0;" x1="187.0977" x2="187.0977" y1="138.9375" y2="158.9375"/><polygon fill="#181818" points="183.0977,148.9375,187.0977,158.9375,191.0977,148.9375,187.0977,152.9375" style="stroke:#181818;stroke-width:1.0;"/><line style="stroke:#181818;stroke-width:1.0;" x1="101.042" x2="101.042" y1="280.875" y2="300.875"/><polygon fill="#181818" points="97.042,290.875,101.042,300.875,105.042,290.875,101.042,294.875" style="stroke:#181818;stroke-width:1.0;"/><line style="stroke:#181818;stroke-width:1.0;" x1="119.3538" x2="101.042" y1="224.9063" y2="224.9063"/><line style="stroke:#181818;stroke-width:1.0;" x1="101.042" x2="101.042" y1="224.9063" y2="246.9063"/><polygon fill="#181818" points="97.042,236.9063,101.042,246.9063,105.042,236.9063,101.042,240.9063" style="stroke:#181818;stroke-width:1.0;"/><line style="stroke:#181818;stroke-width:1.0;" x1="254.8416" x2="273.1533" y1="224.9063" y2="224.9063"/><line style="stroke:#181818;stroke-width:1.0;" x1="273.1533" x2="273.1533" y1="224.9063" y2="246.9063"/><polygon fill="#181818" points="269.1533,236.9063,273.1533,246.9063,277.1533,236.9063,273.1533,240.9063" style="stroke:#181818;stroke-width:1.0;"/><line style="stroke:#181818;stroke-width:1.0;" x1="101.042" x2="101.042" y1="334.8438" y2="352.8438"/><line style="stroke:#181818;stroke-width:1.0;" x1="101.042" x2="175.0977" y1="352.8438" y2="352.8438"/><polygon fill="#181818" points="165.0977,348.8438,175.0977,352.8438,165.0977,356.8438,169.0977,352.8438" style="stroke:#181818;stroke-width:1.0;"/><line style="stroke:#181818;stroke-width:1.0;" x1="273.1533" x2="273.1533" y1="280.875" y2="352.8438"/><line style="stroke:#181818;stroke-width:1.0;" x1="273.1533" x2="199.0977" y1="352.8438" y2="352.8438"/><polygon fill="#181818" points="209.0977,348.8438,199.0977,352.8438,209.0977,356.8438,205.0977,352.8438" style="stroke:#181818;stroke-width:1.0;"/><line style="stroke:#181818;stroke-width:1.0;" x1="187.0977" x2="187.0977" y1="192.9063" y2="212.9063"/><polygon fill="#181818" points="183.0977,202.9063,187.0977,212.9063,191.0977,202.9063,187.0977,206.9063" style="stroke:#181818;stroke-width:1.0;"/><line style="stroke:#181818;stroke-width:1.0;" x1="187.0977" x2="187.0977" y1="364.8438" y2="384.8438"/><polygon fill="#181818" points="183.0977,374.8438,187.0977,384.8438,191.0977,374.8438,187.0977,378.8438" style="stroke:#181818;stroke-width:1.0;"/><line style="stroke:#181818;stroke-width:1.0;" x1="187.0977" x2="187.0977" y1="418.8125" y2="438.8125"/><polygon fill="#181818" points="183.0977,428.8125,187.0977,438.8125,191.0977,428.8125,187.0977,432.8125" style="stroke:#181818;stroke-width:1.0;"/><line style="stroke:#181818;stroke-width:1.0;" x1="187.0977" x2="187.0977" y1="472.7813" y2="492.7813"/><polygon fill="#181818" points="183.0977,482.7813,187.0977,492.7813,191.0977,482.7813,187.0977,486.7813" style="stroke:#181818;stroke-width:1.0;"/><!--SRC=[ZOyn3i8m34Ntdi9ZUuKm80GB2mC3k-kur5A8eoGmz4vC7029NemKjL97Dlj__UzdS_H2WX52LEAaO1aUwCGYoVZoqnhmgfigPOovCcScQIK2krat5uxI2PKAoncTurI6nPKEwi_xi1YaCJ9bJTi6SiyUwZG-cmh0xChz5bUzaqRvNb26IIxdhQwAsIM6skilNA1w7DPfzbQwofmqpspeW9omproGzteBhZ3zyxM6Bm00]--></g></svg>